<?xml version="1.0" ?><svg data-name="Capa 1" id="Capa_1" viewBox="0 0 20 19.84" xmlns="http://www.w3.org/2000/svg"><path d="M14.41,5.21H11.74a1.36,1.36,0,0,0-1.36-1.3H9.62a1.36,1.36,0,0,0-1.36,1.3H5.59a1.1,1.1,0,0,0,0,2.19h.12v7.17a1.39,1.39,0,0,0,1.37,1.37H13a1.38,1.38,0,0,0,1.37-1.37V7.4h0a1.1,1.1,0,0,0,0-2.19ZM9.62,4.58h.76a.69.69,0,0,1,.68.63H8.94A.69.69,0,0,1,9.62,4.58Zm4.08,10a.7.7,0,0,1-.7.7H7.08a.71.71,0,0,1-.7-.7V7.4H7.79v4.69a.34.34,0,0,0,.67,0V7.4H9.88v6a.34.34,0,0,0,.67,0v-6H12v4.69a.34.34,0,0,0,.67,0V7.4H13.7Zm.71-7.84H5.59a.43.43,0,0,1,0-.85h8.82a.43.43,0,0,1,0,.85Z"/></svg>	c55.4,0,100.471,45.071,100.471,100.471S311.567,277.721,256.167,277.721z"/>
	</g>
	<g>
		<path d="M437.19,74.98C388.83,26.63,324.55,0,256.17,0S123.5,26.63,75.15,74.98S0.17,187.62,0.17,256S26.8,388.67,75.15,437.02
			C123.5,485.37,187.79,512,256.17,512s132.66-26.63,181.021-74.98C485.54,388.67,512.17,324.38,512.17,256
			S485.54,123.33,437.19,74.98z M69.31,399.37C38.75,359.63,20.55,309.9,20.55,256c0-129.92,105.7-235.62,235.62-235.62
			S491.78,126.08,491.78,256c0,53.92-18.2,103.67-48.79,143.42c-7.58-25.359-26.88-48-56.183-65.311
			c-35.407-20.92-82.02-32.439-131.24-32.439c-49.16,0-95.57,11.521-130.68,32.46C95.91,351.41,76.82,374.01,69.31,399.37z"/>
	</g>
</g>
</svg>
